<svg width="180" height="36" viewBox="0 0 180 36" fill="none" xmlns="http://www.w3.org/2000/svg">
<path d="M63.9942 31.0435H67.7429V31.3411C67.7429 32.0222 67.6621 32.6277 67.5007 33.1524C67.3443 33.6367 67.0819 34.0908 66.7086 34.5146C65.866 35.4631 64.7964 35.9374 63.4948 35.9374C62.1931 35.9374 61.1386 35.4783 60.2305 34.56C59.3274 33.6418 58.8733 32.5369 58.8733 31.2453C58.8733 29.9537 59.3324 28.8135 60.2557 27.8952C61.179 26.9719 62.299 26.5128 63.6158 26.5128C64.3272 26.5128 64.9882 26.6591 65.6037 26.9467C66.194 27.2343 66.7691 27.7085 67.3392 28.3594L66.3655 29.2928C65.6188 28.3039 64.7157 27.8044 63.6461 27.8044C62.6875 27.8044 61.8803 28.1374 61.2294 28.7983C60.5786 29.4492 60.2557 30.2615 60.2557 31.2453C60.2557 32.2291 60.619 33.0868 61.3404 33.7427C62.0165 34.3481 62.7531 34.6559 63.5452 34.6559C64.2213 34.6559 64.8217 34.4288 65.3615 33.9748C65.8963 33.5156 66.199 32.9657 66.2596 32.33H63.9942V31.0435Z" fill="#00AEEF"/>
<path d="M74.9475 31.9012L77.7577 35.7709H76.0827L73.4894 32.0576H73.2422V35.7709H71.8749V26.6945H73.4793C74.6801 26.6945 75.5428 26.9215 76.0776 27.3705C76.6629 27.87 76.9606 28.536 76.9606 29.3584C76.9606 29.9991 76.7789 30.5541 76.4106 31.0183C76.0423 31.4824 75.558 31.775 74.9525 31.9062L74.9475 31.9012ZM73.2422 30.8618H73.6761C74.9727 30.8618 75.6236 30.3674 75.6236 29.3735C75.6236 28.4452 74.9929 27.981 73.7316 27.981H73.2422V30.8618Z" fill="#00AEEF"/>
<path d="M80.8705 31.1898C80.8705 29.9134 81.3397 28.8135 82.2731 27.9003C83.2065 26.9821 84.3265 26.5229 85.6333 26.5229C86.94 26.5229 88.0348 26.9871 88.9581 27.9104C89.8864 28.8337 90.3506 29.9436 90.3506 31.2403C90.3506 32.5369 89.8864 33.6519 88.953 34.5601C88.0146 35.4732 86.8845 35.9273 85.5626 35.9273C84.3921 35.9273 83.3377 35.5237 82.4043 34.7114C81.3801 33.8134 80.8655 32.6378 80.8655 31.1848L80.8705 31.1898ZM82.2479 31.21C82.2479 32.214 82.5859 33.0364 83.2569 33.6822C83.928 34.328 84.6999 34.6509 85.5778 34.6509C86.5313 34.6509 87.3335 34.3229 87.9894 33.662C88.6453 32.996 88.9732 32.1837 88.9732 31.2302C88.9732 30.2766 88.6503 29.4492 88.0045 28.7984C87.3638 28.1425 86.5666 27.8095 85.6181 27.8095C84.6696 27.8095 83.8775 28.1374 83.2267 28.7984C82.5758 29.4492 82.2529 30.2514 82.2529 31.21H82.2479Z" fill="#00AEEF"/>
<path d="M95.8551 26.6945V32.1585C95.8551 32.9405 95.9813 33.5106 96.2386 33.8688C96.617 34.3885 97.1518 34.6508 97.843 34.6508C98.5342 34.6508 99.074 34.3885 99.4524 33.8688C99.7097 33.5207 99.8358 32.9506 99.8358 32.1585V26.6945H101.203V32.5369C101.203 33.4904 100.905 34.2825 100.31 34.8981C99.6391 35.5893 98.8167 35.9323 97.843 35.9323C96.8692 35.9323 96.0468 35.5893 95.3809 34.8981C94.7855 34.2775 94.4879 33.4904 94.4879 32.5369V26.6945H95.8551Z" fill="#00AEEF"/>
<path d="M107.151 32.083V35.766H105.784V26.6896H107.338C108.1 26.6896 108.67 26.74 109.058 26.846C109.452 26.9519 109.795 27.1537 110.093 27.4464C110.612 27.9559 110.875 28.5967 110.875 29.3737C110.875 30.2061 110.597 30.862 110.042 31.3464C109.487 31.8307 108.735 32.0729 107.792 32.0729H107.156L107.151 32.083ZM107.151 30.8166H107.661C108.917 30.8166 109.548 30.3323 109.548 29.3636C109.548 28.3949 108.897 27.961 107.6 27.961H107.146V30.8166H107.151Z" fill="#00AEEF"/>
<path d="M174.965 10.807C179.077 6.94229 179.854 1.7608 180 0H176.171C175.994 1.60944 175.192 5.72133 171.635 8.48109C168.078 5.72638 167.276 1.61449 167.099 0H163.27C163.411 1.7608 164.193 6.94229 168.305 10.807C163.941 14.5606 163.325 19.9692 163.27 22.1992H167.079C167.135 20.4535 167.69 15.9128 171.63 13.2337C175.57 15.9128 176.125 20.4535 176.181 22.1992H179.99C179.934 19.9692 179.324 14.5606 174.955 10.807H174.965Z" fill="currentcolor"/>
<path d="M74.4531 17.5929H65.5179L63.5553 22.2446H58.8733L68.4088 0.0858154H71.7993L81.0674 22.2446H76.4157L74.4531 17.5929ZM73.1918 14.0713L70.0385 6.09977L66.8852 14.0713H73.1968H73.1918Z" fill="currentcolor"/>
<path d="M96.7683 17.5929H87.8331L85.8705 22.2446H81.1885L90.724 0.0858154H94.1144L103.383 22.2446H98.7309L96.7683 17.5929ZM95.5069 14.0713L92.3537 6.09977L89.2004 14.0713H95.512H95.5069Z" fill="currentcolor"/>
<path d="M112.373 0.0858154C115.431 0.0858154 116.99 0.882967 118.019 1.74571C119.714 3.17352 120.214 5.07054 120.214 6.73043C120.214 8.8898 119.351 10.7818 117.625 11.9472C117.06 12.3458 116.263 12.7091 115.199 12.9109L122.106 22.2446H116.722L110.809 13.3397H110.279V22.2446H105.961V0.0858154H112.368H112.373ZM110.279 10.2823H111.51C112.343 10.2823 115.764 10.1814 115.764 6.92719C115.764 3.673 112.373 3.60237 111.576 3.60237H110.279V10.2773V10.2823Z" fill="currentcolor"/>
<path d="M130.804 0.0858154C133.891 0.0858154 136.585 0.418803 139.043 2.24519C141.732 4.27339 143.296 7.49226 143.296 11.1804C143.296 14.8684 141.767 18.057 138.846 20.1155C136.253 21.9419 133.831 22.2396 130.738 22.2396H125.027V0.0858154H130.809H130.804ZM129.34 18.5212H130.667C131.762 18.5212 134.154 18.4556 136.081 17.0581C137.842 15.7968 138.841 13.5365 138.841 11.1804C138.841 8.82421 137.877 6.59421 136.116 5.2673C134.32 3.9404 132.131 3.80418 130.667 3.80418H129.34V18.5212Z" fill="currentcolor"/>
<path d="M159.562 3.80418H151.59V8.75358H158.109V12.4719H151.59V18.5162H159.562V22.2345H147.271V0.0858154H159.562V3.80418Z" fill="currentcolor"/>
<path d="M9.51035 22.9308C10.898 22.9308 12.0229 21.8059 12.0229 20.4183C12.0229 19.0307 10.898 17.9058 9.51035 17.9058C8.12271 17.9058 6.9978 19.0307 6.9978 20.4183C6.9978 21.8059 8.12271 22.9308 9.51035 22.9308Z" fill="#0075BF"/>
<path d="M2.51254 27.956C3.90018 27.956 5.02508 26.8311 5.02508 25.4434C5.02508 24.0558 3.90018 22.9309 2.51254 22.9309C1.1249 22.9309 0 24.0558 0 25.4434C0 26.8311 1.1249 27.956 2.51254 27.956Z" fill="#005DAC"/>
<path d="M16.508 22.9308C17.8957 22.9308 19.0206 21.8059 19.0206 20.4183C19.0206 19.0307 17.8957 17.9058 16.508 17.9058C15.1204 17.9058 13.9955 19.0307 13.9955 20.4183C13.9955 21.8059 15.1204 22.9308 16.508 22.9308Z" fill="#008ED4"/>
<path d="M43.6313 17.9107C45.019 17.9107 46.1439 16.7858 46.1439 15.3982C46.1439 14.0105 45.019 12.8856 43.6313 12.8856C42.2437 12.8856 41.1188 14.0105 41.1188 15.3982C41.1188 16.7858 42.2437 17.9107 43.6313 17.9107Z" fill="#00A5E8"/>
<path d="M50.6294 12.8857C52.017 12.8857 53.1419 11.7608 53.1419 10.3731C53.1419 8.9855 52.017 7.8606 50.6294 7.8606C49.2417 7.8606 48.1168 8.9855 48.1168 10.3731C48.1168 11.7608 49.2417 12.8857 50.6294 12.8857Z" fill="#00AEEF"/>
<path d="M36.6336 17.9107C38.0213 17.9107 39.1462 16.7858 39.1462 15.3982C39.1462 14.0105 38.0213 12.8856 36.6336 12.8856C35.246 12.8856 34.1211 14.0105 34.1211 15.3982C34.1211 16.7858 35.246 17.9107 36.6336 17.9107Z" fill="#008ED4"/>
<path d="M53.1367 0.0252686L51.497 0.0504949C50.7402 0.0605854 32.9103 0.51466 23.8893 17.603C16.2861 32.0072 0.751745 31.0587 0.075679 31.0133H0V35.7659C0.227037 35.776 0.56507 35.7912 1.02419 35.7912C5.52961 35.7912 20.282 34.6106 28.092 19.8178C35.7709 5.27234 50.9319 4.80818 51.5677 4.79809L53.1367 4.77286V0.0252686Z" fill="currentcolor"/>
<path d="M23.0165 16.5334C23.8641 14.9794 24.7823 13.5617 25.7561 12.2651C16.2811 0.423845 2.30569 0.0605854 1.63971 0.0504949L0 0.0252686V4.77791L1.56908 4.80314C2.15433 4.81323 14.9743 5.21685 23.0165 16.5334Z" fill="currentcolor"/>
<path d="M30.0396 18.9954C29.7621 19.4546 29.4897 19.9288 29.2323 20.4182C28.6421 21.5332 28.0114 22.5675 27.3505 23.5412C35.4683 34.8123 48.0209 35.7861 52.1126 35.7861C52.5717 35.7861 52.9098 35.776 53.1368 35.7609V30.9981H53.0611C52.4053 31.0486 37.8749 31.9315 30.0345 18.9854L30.0396 18.9954Z" fill="currentcolor"/>
</svg>
